<?xml version="1.0" encoding="UTF-8"?>
<svg width="57px" height="37px" viewBox="0 0 57 37" version="1.1" xmlns="http://www.w3.org/2000/svg" xmlns:xlink="http://www.w3.org/1999/xlink">
    <!-- Generator: Sketch 52.6 (67491) - http://www.bohemiancoding.com/sketch -->
    <title>fintory_logo</title>
    <desc>Created with Sketch.</desc>
    <defs>
        <linearGradient x1="0%" y1="100%" x2="100%" y2="0%" id="linearGradient-1">
            <stop stop-color="#4C7EFF" offset="0%"></stop>
            <stop stop-color="#6EEAD8" offset="100%"></stop>
        </linearGradient>
    </defs>
    <g id="Page-1" stroke="none" stroke-width="1" fill="none" fill-rule="evenodd">
        <g id="GA-Light" transform="translate(-32.000000, -36.000000)" fill="url(#linearGradient-1)" fill-rule="nonzero">
            <g id="Group" transform="translate(32.000000, 36.000000)">
                <g id="fintory_logo">
                    <path d="M11.303671,36.27633 C10.522623,37.057379 9.256293,37.057379 8.475244,36.27633 L1.414214,29.2153 C0.633165,28.434251 0.633165,27.167921 1.414214,26.386873 L6.386873,21.414214 C7.167921,20.633165 8.434251,20.633165 9.2153,21.414214 L16.27633,28.475244 C17.057379,29.256293 17.057379,30.522623 16.27633,31.303671 L11.303671,36.27633 Z M31.193129,36.165788 C30.41208,36.946837 29.14575,36.946837 28.364702,36.165788 L11.414214,19.2153 C10.633165,18.434251 10.633165,17.167921 11.414214,16.386873 L16.386873,11.414214 C17.167921,10.633165 18.434251,10.633165 19.2153,11.414214 L36.165788,28.364702 C36.946837,29.14575 36.946837,30.41208 36.165788,31.193129 L31.193129,36.165788 Z M51.082587,36.055246 C50.301538,36.836294 49.035208,36.836294 48.254159,36.055246 L21.414214,9.2153 C20.633165,8.434251 20.633165,7.167921 21.414214,6.386873 L26.386873,1.414214 C27.167921,0.633165 28.434251,0.633165 29.2153,1.414214 L56.055246,28.254159 C56.836294,29.035208 56.836294,30.301538 56.055246,31.082587 L51.082587,36.055246 Z" id="Logo"></path>
                </g>
            </g>
        </g>
    </g>
</svg>