<?xml version="1.0" encoding="UTF-8"?>
<svg width="8px" height="24px" viewBox="0 0 8 24" version="1.1" xmlns="http://www.w3.org/2000/svg" xmlns:xlink="http://www.w3.org/1999/xlink">
    <!-- Generator: Sketch 52.6 (67491) - http://www.bohemiancoding.com/sketch -->
    <title>Combined Shape</title>
    <desc>Created with Sketch.</desc>
    <defs>
        <filter x="-1.2%" y="-1.9%" width="102.3%" height="103.8%" filterUnits="objectBoundingBox" id="filter-1">
            <feOffset dx="0" dy="0" in="SourceAlpha" result="shadowOffsetOuter1"></feOffset>
            <feGaussianBlur stdDeviation="1" in="shadowOffsetOuter1" result="shadowBlurOuter1"></feGaussianBlur>
            <feColorMatrix values="0 0 0 0 0   0 0 0 0 0   0 0 0 0 0  0 0 0 0.5 0" type="matrix" in="shadowBlurOuter1" result="shadowMatrixOuter1"></feColorMatrix>
            <feMerge>
                <feMergeNode in="shadowMatrixOuter1"></feMergeNode>
                <feMergeNode in="SourceGraphic"></feMergeNode>
            </feMerge>
        </filter>
    </defs>
    <g id="Page-1" stroke="none" stroke-width="1" fill="none" fill-rule="evenodd">
        <g id="CreateProject" transform="translate(-714.000000, -365.000000)" fill="#A0A3A8">
            <g id="Group-Copy-3" filter="url(#filter-1)" transform="translate(405.000000, 346.000000)">
                <g id="Group-4" transform="translate(297.000000, 15.000000)">
                    <g id="Group-3">
                        <path d="M15,6 L17,6 C17.5522847,6 18,6.44771525 18,7 L18,9 C18,9.55228475 17.5522847,10 17,10 L15,10 C14.4477153,10 14,9.55228475 14,9 L14,7 C14,6.44771525 14.4477153,6 15,6 Z M15,14 L17,14 C17.5522847,14 18,14.4477153 18,15 L18,17 C18,17.5522847 17.5522847,18 17,18 L15,18 C14.4477153,18 14,17.5522847 14,17 L14,15 C14,14.4477153 14.4477153,14 15,14 Z M15,22 L17,22 C17.5522847,22 18,22.4477153 18,23 L18,25 C18,25.5522847 17.5522847,26 17,26 L15,26 C14.4477153,26 14,25.5522847 14,25 L14,23 C14,22.4477153 14.4477153,22 15,22 Z" id="Combined-Shape"></path>
                    </g>
                </g>
            </g>
        </g>
    </g>
</svg>