<?xml version="1.0" encoding="UTF-8"?>
<svg width="21px" height="21px" viewBox="0 0 21 21" version="1.1" xmlns="http://www.w3.org/2000/svg" xmlns:xlink="http://www.w3.org/1999/xlink">
    <!-- Generator: Sketch 52.6 (67491) - http://www.bohemiancoding.com/sketch -->
    <title>radio-on-button copy</title>
    <desc>Created with Sketch.</desc>
    <g id="Page-1" stroke="none" stroke-width="1" fill="none" fill-rule="evenodd">
        <g id="GA-Light" transform="translate(-32.000000, -432.000000)" fill="#6D7381" fill-rule="nonzero">
            <g id="radio-on-button-copy" transform="translate(42.500000, 442.500000) scale(1, -1) translate(-42.500000, -442.500000) translate(32.000000, 432.000000)">
                <path d="M10.5,5.25 C7.56,5.25 5.25,7.56 5.25,10.5 C5.25,13.44 7.56,15.75 10.5,15.75 C13.44,15.75 15.75,13.44 15.75,10.5 C15.75,7.56 13.44,5.25 10.5,5.25 Z M10.5,0 C4.725,0 0,4.725 0,10.5 C0,16.275 4.725,21 10.5,21 C16.275,21 21,16.275 21,10.5 C21,4.725 16.275,0 10.5,0 Z M10.5,18.9 C5.88,18.9 2.1,15.12 2.1,10.5 C2.1,5.88 5.88,2.1 10.5,2.1 C15.12,2.1 18.9,5.88 18.9,10.5 C18.9,15.12 15.12,18.9 10.5,18.9 Z" id="Shape"></path>
            </g>
        </g>
    </g>
</svg>